<svg xmlns="http://www.w3.org/2000/svg" version="1.1" xmlns:xlink="http://www.w3.org/1999/xlink" xmlns:svgjs="http://svgjs.dev/svgjs" width="1000" height="1000"><style>
    #light-icon {
      display: inline;
    }
    #dark-icon {
      display: none;
    }

    @media (prefers-color-scheme: dark) {
      #light-icon {
        display: none;
      }
      #dark-icon {
        display: inline;
      }
    }
  </style><g id="light-icon"><svg xmlns="http://www.w3.org/2000/svg" version="1.1" xmlns:xlink="http://www.w3.org/1999/xlink" xmlns:svgjs="http://svgjs.dev/svgjs" width="1000" height="1000"><g clip-path="url(#SvgjsClipPath1271)"><rect width="1000" height="1000" fill="#e50046"></rect><g transform="matrix(4.516129032258065,0,0,4.516129032258065,149.99999999999994,149.99999999999994)"><svg xmlns="http://www.w3.org/2000/svg" version="1.1" xmlns:xlink="http://www.w3.org/1999/xlink" xmlns:svgjs="http://svgjs.dev/svgjs" width="155" height="155"><svg width="155" height="155" viewBox="0 0 155 155" fill="none" xmlns="http://www.w3.org/2000/svg">
<path fill-rule="evenodd" clip-rule="evenodd" d="M105.898 0H48.6555C21.7839 0 0 21.8469 0 48.7962V106.204C0 133.153 21.7839 155 48.6555 155H105.898C132.769 155 154.553 133.153 154.553 106.204V48.7962C154.553 21.8469 132.769 0 105.898 0ZM84.1188 57.6157C86.9384 60.3315 90.6506 62.0235 94.6225 62.4022C98.5945 62.7814 102.58 61.8238 105.9 59.6937C109.219 57.5636 111.668 54.3922 112.828 50.7205C113.988 47.0482 113.789 43.1032 112.262 39.5571C110.736 36.011 107.978 33.0837 104.459 31.274C100.939 29.4647 96.8752 28.8846 92.9609 29.6336C89.0461 30.382 85.523 32.4128 82.9911 35.3793C80.4598 38.3465 79.0763 42.0654 79.0774 45.9037C79.0752 48.0787 79.5195 50.2324 80.3848 52.2425C81.2495 54.2525 82.5188 56.0786 84.1188 57.6157ZM101.399 43.5223C100.863 43.3108 100.376 43 99.9662 42.6073H100.03C99.6209 42.2152 99.2957 41.749 99.0741 41.2356C98.8525 40.7229 98.7383 40.1731 98.7383 39.6177C98.7383 39.0618 98.8525 38.5114 99.0741 37.9987C99.2957 37.4859 99.6209 37.0197 100.03 36.6276C100.862 35.8388 101.983 35.3967 103.152 35.3973C104.014 35.413 104.851 35.6711 105.562 36.1401C106.272 36.6096 106.823 37.2688 107.148 38.0363C107.472 38.8043 107.555 39.6463 107.386 40.4587C107.217 41.2716 106.804 42.0182 106.197 42.6073C105.79 43.0011 105.305 43.3125 104.771 43.524C104.238 43.7349 103.665 43.8415 103.088 43.837C102.509 43.8404 101.935 43.7332 101.399 43.5223ZM57.7107 62.3781C53.7455 62.0056 50.0372 60.3226 47.2176 57.6157C45.6148 56.0792 44.3432 54.2537 43.4763 52.2436C42.6094 50.2341 42.1628 48.0793 42.1633 45.9037C42.1617 42.0727 43.5418 38.3594 46.0681 35.3973C48.5938 32.4347 52.1102 30.4061 56.0172 29.6571C59.9247 28.9076 63.9811 29.4844 67.4958 31.288C71.0105 33.0922 73.7662 36.0122 75.293 39.5504C76.8197 43.0886 77.0235 47.0269 75.8694 50.6936C74.7154 54.3603 72.2753 57.5288 68.9638 59.6595C65.6528 61.7902 61.6759 62.7506 57.7107 62.3781ZM63.0644 42.6073C63.4713 43.0011 63.9559 43.3125 64.4899 43.524C65.0238 43.7349 65.5963 43.8415 66.1739 43.837C67.0475 43.8482 67.9044 43.6092 68.6364 43.1503C69.3684 42.6914 69.9415 42.0334 70.2829 41.2603C70.6249 40.4878 70.7194 39.634 70.5549 38.8093C70.3904 37.9841 69.9745 37.2251 69.36 36.6276C68.5284 35.8388 67.4063 35.3967 66.2377 35.3973C65.3685 35.399 64.5184 35.6475 63.7959 36.1126C63.0728 36.5777 62.5098 37.2385 62.1773 38.011C61.8444 38.7835 61.7576 39.6334 61.9266 40.4536C62.0962 41.2738 62.5143 42.0272 63.1288 42.6196L63.0644 42.6073ZM28.8305 88.804C31.6635 91.4951 35.3791 93.1591 39.3449 93.5125C43.3106 93.8659 47.2809 92.8875 50.5795 90.7428C53.8793 88.5987 56.3037 85.4206 57.4404 81.7511C58.5776 78.0811 58.3566 74.1456 56.8152 70.6147C55.2739 67.0838 52.5075 64.1755 48.9873 62.3854C45.467 60.5947 41.41 60.0331 37.507 60.7955C33.6044 61.5573 30.0965 63.5966 27.5819 66.5654C25.0668 69.5348 23.6996 73.2497 23.713 77.0791C23.7192 79.2614 24.1742 81.4213 25.0528 83.4336C25.9315 85.4453 27.2154 87.2708 28.8305 88.804ZM46.105 74.7078C45.5717 74.4963 45.0864 74.1866 44.6779 73.795C44.0639 73.2032 43.6453 72.4492 43.4763 71.6296C43.3067 70.8094 43.394 69.9589 43.7265 69.187C44.0595 68.4139 44.6225 67.7536 45.345 67.2885C46.0681 66.8234 46.9177 66.5744 47.7874 66.5732C48.9559 66.571 50.0781 67.0131 50.9092 67.8035C51.7302 68.6007 52.1908 69.6773 52.1908 70.7993C52.1908 71.9213 51.7302 72.9978 50.9092 73.795C50.0775 74.5843 48.9554 75.0264 47.7874 75.0253C47.2104 75.0264 46.6389 74.9192 46.105 74.7078ZM57.8002 125.074C53.8345 124.701 50.1267 123.018 47.3072 120.312C45.7043 118.775 44.4333 116.949 43.5658 114.94C42.6989 112.93 42.2529 110.775 42.2529 108.599C42.2518 104.768 43.6308 101.055 46.1576 98.0931C48.6839 95.131 52.1997 93.1018 56.1067 92.3529C60.0143 91.6034 64.0707 92.1801 67.5853 93.9837C71.1 95.7879 73.8558 98.7079 75.3825 102.246C76.9093 105.785 77.1136 109.723 75.959 113.389C74.805 117.056 72.3648 120.225 69.0533 122.355C65.7424 124.486 61.7654 125.446 57.8002 125.074ZM63.154 105.303C63.5631 105.695 64.0477 106.004 64.5817 106.215C65.1145 106.427 65.6864 106.534 66.2634 106.533C67.432 106.534 68.5536 106.092 69.3852 105.303C70.0048 104.71 70.4262 103.953 70.598 103.13C70.7698 102.306 70.6831 101.452 70.3501 100.675C70.016 99.8989 69.4501 99.2347 68.7243 98.768C67.9978 98.3007 67.1438 98.0516 66.2696 98.0516C65.396 98.0516 64.5419 98.3007 63.8155 98.768C63.089 99.2347 62.5238 99.8989 62.1897 100.675C61.8561 101.452 61.7699 102.306 61.9412 103.13C62.113 103.953 62.5355 104.71 63.154 105.303ZM84.2084 120.312C87.0279 123.028 90.7402 124.719 94.7121 125.098C98.684 125.477 102.669 124.52 105.989 122.389C109.309 120.259 111.758 117.088 112.918 113.416C114.078 109.744 113.878 105.799 112.352 102.253C110.825 98.7068 108.068 95.7795 104.548 93.9703C101.028 92.1605 96.9647 91.5804 93.0505 92.3293C89.1356 93.0777 85.6126 95.1086 83.0807 98.0751C80.5493 101.042 79.1658 104.762 79.167 108.599C79.1647 110.774 79.6091 112.928 80.4743 114.938C81.339 116.948 82.6083 118.774 84.2084 120.312ZM103.178 106.533C102.009 106.534 100.887 106.092 100.056 105.303C99.4401 104.71 99.0215 103.956 98.853 103.134C98.684 102.313 98.7724 101.462 99.1065 100.689C99.4407 99.9158 100.006 99.2555 100.731 98.791C101.455 98.327 102.307 98.0796 103.178 98.0813C103.755 98.0768 104.327 98.1834 104.861 98.3943C105.395 98.6058 105.88 98.9172 106.287 99.311C106.901 99.9034 107.319 100.657 107.489 101.477C107.658 102.297 107.57 103.147 107.238 103.92C106.905 104.692 106.342 105.353 105.62 105.818C104.897 106.283 104.047 106.532 103.178 106.533ZM113.185 93.5125C109.22 93.1591 105.505 91.4951 102.672 88.804C101.055 87.2714 99.7703 85.4464 98.8916 83.4341C98.013 81.4218 97.5585 79.2614 97.5535 77.0791C97.5406 73.2497 98.9079 69.5348 101.422 66.5654C103.938 63.5966 107.445 61.5573 111.348 60.7955C115.251 60.0331 119.307 60.5947 122.828 62.3854C126.349 64.1755 129.114 67.0838 130.656 70.6147C132.197 74.1456 132.419 78.0811 131.281 81.7511C130.145 85.4206 127.72 88.5987 124.421 90.7428C121.121 92.8875 117.151 93.8659 113.185 93.5125ZM118.506 73.795C119.338 74.5843 120.459 75.0264 121.628 75.0253C122.643 75.0197 123.624 74.6763 124.405 74.0536C125.186 73.4309 125.718 72.567 125.912 71.6093C126.105 70.6517 125.947 69.6593 125.465 68.8004C124.983 67.9421 124.207 67.2706 123.268 66.9009C122.329 66.5306 121.286 66.4852 120.316 66.7713C119.346 67.0574 118.509 67.6582 117.948 68.4706C117.386 69.2834 117.135 70.2585 117.237 71.229C117.339 72.1995 117.787 73.1067 118.506 73.795Z" fill="#F3F3F3"></path>
</svg></svg></g></g><defs><clipPath id="SvgjsClipPath1271"><rect width="1000" height="1000" x="0" y="0" rx="350" ry="350"></rect></clipPath></defs></svg></g><g id="dark-icon"><svg xmlns="http://www.w3.org/2000/svg" version="1.1" xmlns:xlink="http://www.w3.org/1999/xlink" xmlns:svgjs="http://svgjs.dev/svgjs" width="1000" height="1000"><g clip-path="url(#SvgjsClipPath1272)"><rect width="1000" height="1000" fill="#e50046"></rect><g transform="matrix(4.516129032258065,0,0,4.516129032258065,149.99999999999994,149.99999999999994)"><svg xmlns="http://www.w3.org/2000/svg" version="1.1" xmlns:xlink="http://www.w3.org/1999/xlink" xmlns:svgjs="http://svgjs.dev/svgjs" width="155" height="155"><svg width="155" height="155" viewBox="0 0 155 155" fill="none" xmlns="http://www.w3.org/2000/svg">
<path fill-rule="evenodd" clip-rule="evenodd" d="M105.898 0H48.6555C21.7839 0 0 21.8469 0 48.7962V106.204C0 133.153 21.7839 155 48.6555 155H105.898C132.769 155 154.553 133.153 154.553 106.204V48.7962C154.553 21.8469 132.769 0 105.898 0ZM84.1188 57.6157C86.9384 60.3315 90.6506 62.0235 94.6225 62.4022C98.5945 62.7814 102.58 61.8238 105.9 59.6937C109.219 57.5636 111.668 54.3922 112.828 50.7205C113.988 47.0482 113.789 43.1032 112.262 39.5571C110.736 36.011 107.978 33.0837 104.459 31.274C100.939 29.4647 96.8752 28.8846 92.9609 29.6336C89.0461 30.382 85.523 32.4128 82.9911 35.3793C80.4598 38.3465 79.0763 42.0654 79.0774 45.9037C79.0752 48.0787 79.5195 50.2324 80.3848 52.2425C81.2495 54.2525 82.5188 56.0786 84.1188 57.6157ZM101.399 43.5223C100.863 43.3108 100.376 43 99.9662 42.6073H100.03C99.6209 42.2152 99.2957 41.749 99.0741 41.2356C98.8525 40.7229 98.7383 40.1731 98.7383 39.6177C98.7383 39.0618 98.8525 38.5114 99.0741 37.9987C99.2957 37.4859 99.6209 37.0197 100.03 36.6276C100.862 35.8388 101.983 35.3967 103.152 35.3973C104.014 35.413 104.851 35.6711 105.562 36.1401C106.272 36.6096 106.823 37.2688 107.148 38.0363C107.472 38.8043 107.555 39.6463 107.386 40.4587C107.217 41.2716 106.804 42.0182 106.197 42.6073C105.79 43.0011 105.305 43.3125 104.771 43.524C104.238 43.7349 103.665 43.8415 103.088 43.837C102.509 43.8404 101.935 43.7332 101.399 43.5223ZM57.7107 62.3781C53.7455 62.0056 50.0372 60.3226 47.2176 57.6157C45.6148 56.0792 44.3432 54.2537 43.4763 52.2436C42.6094 50.2341 42.1628 48.0793 42.1633 45.9037C42.1617 42.0727 43.5418 38.3594 46.0681 35.3973C48.5938 32.4347 52.1102 30.4061 56.0172 29.6571C59.9247 28.9076 63.9811 29.4844 67.4958 31.288C71.0105 33.0922 73.7662 36.0122 75.293 39.5504C76.8197 43.0886 77.0235 47.0269 75.8694 50.6936C74.7154 54.3603 72.2753 57.5288 68.9638 59.6595C65.6528 61.7902 61.6759 62.7506 57.7107 62.3781ZM63.0644 42.6073C63.4713 43.0011 63.9559 43.3125 64.4899 43.524C65.0238 43.7349 65.5963 43.8415 66.1739 43.837C67.0475 43.8482 67.9044 43.6092 68.6364 43.1503C69.3684 42.6914 69.9415 42.0334 70.2829 41.2603C70.6249 40.4878 70.7194 39.634 70.5549 38.8093C70.3904 37.9841 69.9745 37.2251 69.36 36.6276C68.5284 35.8388 67.4063 35.3967 66.2377 35.3973C65.3685 35.399 64.5184 35.6475 63.7959 36.1126C63.0728 36.5777 62.5098 37.2385 62.1773 38.011C61.8444 38.7835 61.7576 39.6334 61.9266 40.4536C62.0962 41.2738 62.5143 42.0272 63.1288 42.6196L63.0644 42.6073ZM28.8305 88.804C31.6635 91.4951 35.3791 93.1591 39.3449 93.5125C43.3106 93.8659 47.2809 92.8875 50.5795 90.7428C53.8793 88.5987 56.3037 85.4206 57.4404 81.7511C58.5776 78.0811 58.3566 74.1456 56.8152 70.6147C55.2739 67.0838 52.5075 64.1755 48.9873 62.3854C45.467 60.5947 41.41 60.0331 37.507 60.7955C33.6044 61.5573 30.0965 63.5966 27.5819 66.5654C25.0668 69.5348 23.6996 73.2497 23.713 77.0791C23.7192 79.2614 24.1742 81.4213 25.0528 83.4336C25.9315 85.4453 27.2154 87.2708 28.8305 88.804ZM46.105 74.7078C45.5717 74.4963 45.0864 74.1866 44.6779 73.795C44.0639 73.2032 43.6453 72.4492 43.4763 71.6296C43.3067 70.8094 43.394 69.9589 43.7265 69.187C44.0595 68.4139 44.6225 67.7536 45.345 67.2885C46.0681 66.8234 46.9177 66.5744 47.7874 66.5732C48.9559 66.571 50.0781 67.0131 50.9092 67.8035C51.7302 68.6007 52.1908 69.6773 52.1908 70.7993C52.1908 71.9213 51.7302 72.9978 50.9092 73.795C50.0775 74.5843 48.9554 75.0264 47.7874 75.0253C47.2104 75.0264 46.6389 74.9192 46.105 74.7078ZM57.8002 125.074C53.8345 124.701 50.1267 123.018 47.3072 120.312C45.7043 118.775 44.4333 116.949 43.5658 114.94C42.6989 112.93 42.2529 110.775 42.2529 108.599C42.2518 104.768 43.6308 101.055 46.1576 98.0931C48.6839 95.131 52.1997 93.1018 56.1067 92.3529C60.0143 91.6034 64.0707 92.1801 67.5853 93.9837C71.1 95.7879 73.8558 98.7079 75.3825 102.246C76.9093 105.785 77.1136 109.723 75.959 113.389C74.805 117.056 72.3648 120.225 69.0533 122.355C65.7424 124.486 61.7654 125.446 57.8002 125.074ZM63.154 105.303C63.5631 105.695 64.0477 106.004 64.5817 106.215C65.1145 106.427 65.6864 106.534 66.2634 106.533C67.432 106.534 68.5536 106.092 69.3852 105.303C70.0048 104.71 70.4262 103.953 70.598 103.13C70.7698 102.306 70.6831 101.452 70.3501 100.675C70.016 99.8989 69.4501 99.2347 68.7243 98.768C67.9978 98.3007 67.1438 98.0516 66.2696 98.0516C65.396 98.0516 64.5419 98.3007 63.8155 98.768C63.089 99.2347 62.5238 99.8989 62.1897 100.675C61.8561 101.452 61.7699 102.306 61.9412 103.13C62.113 103.953 62.5355 104.71 63.154 105.303ZM84.2084 120.312C87.0279 123.028 90.7402 124.719 94.7121 125.098C98.684 125.477 102.669 124.52 105.989 122.389C109.309 120.259 111.758 117.088 112.918 113.416C114.078 109.744 113.878 105.799 112.352 102.253C110.825 98.7068 108.068 95.7795 104.548 93.9703C101.028 92.1605 96.9647 91.5804 93.0505 92.3293C89.1356 93.0777 85.6126 95.1086 83.0807 98.0751C80.5493 101.042 79.1658 104.762 79.167 108.599C79.1647 110.774 79.6091 112.928 80.4743 114.938C81.339 116.948 82.6083 118.774 84.2084 120.312ZM103.178 106.533C102.009 106.534 100.887 106.092 100.056 105.303C99.4401 104.71 99.0215 103.956 98.853 103.134C98.684 102.313 98.7724 101.462 99.1065 100.689C99.4407 99.9158 100.006 99.2555 100.731 98.791C101.455 98.327 102.307 98.0796 103.178 98.0813C103.755 98.0768 104.327 98.1834 104.861 98.3943C105.395 98.6058 105.88 98.9172 106.287 99.311C106.901 99.9034 107.319 100.657 107.489 101.477C107.658 102.297 107.57 103.147 107.238 103.92C106.905 104.692 106.342 105.353 105.62 105.818C104.897 106.283 104.047 106.532 103.178 106.533ZM113.185 93.5125C109.22 93.1591 105.505 91.4951 102.672 88.804C101.055 87.2714 99.7703 85.4464 98.8916 83.4341C98.013 81.4218 97.5585 79.2614 97.5535 77.0791C97.5406 73.2497 98.9079 69.5348 101.422 66.5654C103.938 63.5966 107.445 61.5573 111.348 60.7955C115.251 60.0331 119.307 60.5947 122.828 62.3854C126.349 64.1755 129.114 67.0838 130.656 70.6147C132.197 74.1456 132.419 78.0811 131.281 81.7511C130.145 85.4206 127.72 88.5987 124.421 90.7428C121.121 92.8875 117.151 93.8659 113.185 93.5125ZM118.506 73.795C119.338 74.5843 120.459 75.0264 121.628 75.0253C122.643 75.0197 123.624 74.6763 124.405 74.0536C125.186 73.4309 125.718 72.567 125.912 71.6093C126.105 70.6517 125.947 69.6593 125.465 68.8004C124.983 67.9421 124.207 67.2706 123.268 66.9009C122.329 66.5306 121.286 66.4852 120.316 66.7713C119.346 67.0574 118.509 67.6582 117.948 68.4706C117.386 69.2834 117.135 70.2585 117.237 71.229C117.339 72.1995 117.787 73.1067 118.506 73.795Z" fill="#F3F3F3"></path>
</svg></svg></g></g><defs><clipPath id="SvgjsClipPath1272"><rect width="1000" height="1000" x="0" y="0" rx="350" ry="350"></rect></clipPath></defs></svg></g></svg>